# xmcd CD database file
#
# Track frame offsets:
#	150
#	20830
#	41672
#	63830
#	85312
#	109595
#	137875
#	164850
#	195940
#	220142
#	245055
#	267560
#	293215
#	319257
#
# Disc length: 4569 seconds
#
# Revision: 3
# Processed by: cddbd v1.5.1PL0 Copyright (c) Steve Scherf et al.
# Submitted via: CDex 1.51
#
DISCID=da11d70e
DTITLE=DAVID SANBORN - SANBORN BEST ! - DREAMING GIRL
DYEAR=1996
DGENRE=Jazz
TTITLE0=DREAMING GIRL
TTITLE1=BANG BANG
TTITLE2=EVERYTHING MUST CHANGE
TTITLE3=BACK TO MEMPHIS
TTITLE4=FIRST SONG
TTITLE5=SAVANNA
TTITLE6=TRY A LITTLE TENDERNESS
TTITLE7=FULL HOUSE
TTITLE8=GOT TO GIVE IT UP
TTITLE9=SUPERSTAR
TTITLE10=HOBBIES
TTITLE11=SMOKE GETS IN YOUR EYES
TTITLE12=BENNY
TTITLE13=GEORGIA ON MY MIND
EXTD=YEAR: 1996
EXTT0=
EXTT1=
EXTT2=
EXTT3=
EXTT4=
EXTT5=
EXTT6=
EXTT7=
EXTT8=
EXTT9=
EXTT10=
EXTT11=
EXTT12=
EXTT13=
PLAYORDER=
